<svg version="1.1" xmlns="http://www.w3.org/2000/svg" xmlns:xlink="http://www.w3.org/1999/xlink" x="0px" y="0px"
	 viewBox="0 0 253.1 253.4" xml:space="preserve">
<g>
	<path style="fill:#3FC5BF;" d="M146.6,152.6c-0.6-0.1-1.3-0.3-1.9-0.3c-30.4,0-60.8,0-91.2,0c-0.7,0-1.4,0-2,0
		c0.3-4.7,0.6-9.3,0.9-14c4,1.3,8.1,1.8,12.3,1.3c16.4-2.1,26.3-20.3,19.2-35.3c-2.6-5.5-6.8-9.6-12.2-12.3c2.3-2.8,4.5-5.6,6.9-8.3
		c6.2-6.6,13.2-12.2,20.9-17c7.1-4.3,14.6-7.7,22.6-10.2c9.6-3,19.5-4.4,29.6-4.5c13.4,0.1,26.4,2.5,38.8,7.8
		c23.7,10.2,41.1,27.1,52.2,50.4c4.9,10.3,7.6,21.2,8.8,32.5c0.1,1,0.3,1.9,0.4,2.9c0,2.2,0,4.4,0,6.6c-32,0-64,0-96,0
		c1.1,0.3,2.3,0.5,3.4,0.6c10.5,1.5,19.5,6.1,27.1,13.3c3.6,3.4,6.5,7.3,8.9,11.6c4.3,7.7,6.4,15.8,6.4,24.6c-8.3,0-16.7,0-25,0
		c-7.5,0-15,0-22.5,0c6.4-1.7,10.1-7.4,9.9-12.5c0-6.9-5.6-12.5-12.5-12.5c0-8.3,0-16.6,0-25.2C149.7,152.4,148.1,152.5,146.6,152.6
		z"/>
	<path style="fill:#7FD8D4;" d="M201.7,202.5c0-8.8-2.1-17-6.4-24.6c-2.4-4.3-5.4-8.2-8.9-11.6c-7.7-7.2-16.7-11.8-27.1-13.3
		c-1.1-0.2-2.3-0.3-3.4-0.6c32,0,64,0,96,0c0,1.8,0,3.5,0,5.3c-0.1,0.3-0.2,0.6-0.3,0.9c-0.4,3.7-0.7,7.5-1.3,11.1
		c-1.5,9.3-4.4,18.1-8.5,26.5c-5.9,12-13.8,22.5-23.9,31.4c-6.9,6.1-14.5,11.1-22.7,15.1c-8,3.8-16.3,6.6-25,8.2
		c-2.6,0.5-5.2,0.7-7.8,1c0.5-0.2,0.9-0.5,1.4-0.7c11.3-2.9,20.6-8.9,27.6-18.1C198.2,224.1,201.7,213.8,201.7,202.5z"/>
	<path style="fill:#1FBBB4;" d="M156.6,252.4c-1.7,0.1-3.3,0.2-5,0.2c0-8.3,0-16.7,0-25c13.9,0.1,25.2-11.5,25.1-25.1
		c8.3,0,16.7,0,25,0c0,11.4-3.5,21.6-10.4,30.6c-7.1,9.2-16.3,15.7-27.6,18.5C163.2,251.7,158,252.3,156.6,252.4z"/>
	<path style="fill:#3FC5BF;" d="M151.6,227.5c0,8.3,0,16.7,0,25c-1.7,0-3.3,0-5-0.1c-1.5-0.2-2.9-0.5-4.4-0.8
		c-20.6-3.9-36.6-20.1-40-40.7c-0.5-2.8-0.5-5.7-0.7-8.5c8.3,0,16.7,0,25,0C126.5,216.2,137.7,227.5,151.6,227.5z"/>
	<path style="fill:#7FD8D4;" d="M52.3,138.3c-0.3,4.7-0.6,9.3-0.9,14c-10,0-20,0-30.1,0c-6.1,0-12.1,0-18.2,0c-0.6,0-1.1,0-2,0
		c0.4-36.4,11.8-68.9,35.3-96.5C66.4,20.5,105,3,151.6,1.8c0,16.9,0,33.6,0,50.2c-10.1,0-20,1.5-29.6,4.5
		c-7.9,2.4-15.5,5.8-22.6,10.2c-7.7,4.7-14.7,10.4-20.9,17c-2.4,2.6-4.6,5.5-6.9,8.3c-2.9-0.7-5.8-1.9-8.7-2.2
		c-8.3-0.6-15.3,2.3-20.8,8.6c-6.4,7.3-7.9,18.2-3.7,26.9C41.3,131.5,46,135.7,52.3,138.3z"/>
	<path style="fill:#7FD8D4;" d="M126.5,202.4c-8.3,0-16.7,0-25,0c0-11.3,3.4-21.4,10.2-30.4c7.1-9.4,16.5-15.5,27.9-18.3
		c2.3-0.6,4.6-0.8,6.9-1.2c1.6-0.1,3.2-0.3,5-0.4c0,8.5,0,16.8,0,25.2l0,0C137.7,177.4,126.6,188.6,126.5,202.4L126.5,202.4z"/>
	<path style="fill:#FDFDFD;" d="M52.3,138.3c-6.3-2.6-11-6.8-14-13c-4.2-8.7-2.7-19.6,3.7-26.9c5.5-6.3,12.5-9.2,20.8-8.6
		c2.9,0.2,5.8,1.4,8.7,2.2c5.4,2.8,9.6,6.8,12.2,12.3c7.1,15-2.9,33.1-19.2,35.3C60.4,140.1,56.3,139.6,52.3,138.3z M48.6,114.6
		c-0.1,6.9,5.5,12.6,12.4,12.7s12.6-5.5,12.7-12.4s-5.5-12.6-12.4-12.7C54.3,102.2,48.6,107.7,48.6,114.6z"/>
	<path style="fill:#0FB6AF;" d="M151.6,227.5c-13.9,0-25.1-11.3-25-25.1l0,0c7.7,0,15.4,0,23.2,0c0.6,0,1.2-0.1,1.9-0.1
		c0-4.3,0-8.3,0-12.4l0,0c4.2,0,8.3,0,12.5,0c0.2,5.2-3.6,10.8-9.9,12.5c7.5,0,15,0,22.5,0C176.8,216,165.5,227.6,151.6,227.5z"/>
	<path style="fill:#1FBBB4;" d="M164.1,189.9c-4.2,0-8.3,0-12.5,0c0-4.2,0-8.4,0-12.5l0,0C158.6,177.4,164.2,183,164.1,189.9z"/>
	<path style="fill:#7FD8D4;" d="M160.7,251.9c0.2-0.1,0.5-0.1,0.7-0.2C161.2,251.8,160.9,251.9,160.7,251.9z"/>
	<path style="fill:#3FC5BF;" d="M151.6,177.4c0,4.2,0,8.4,0,12.5l0,0c-3.7,0-7.5,0-11.2,0c-0.9,0-1.4,0.2-1.3,1.2
		c0.4,2.7,1.4,5.2,3.3,7.3c2,2.2,4.6,3.3,7.3,4.1c-7.7,0-15.4,0-23.2,0C126.6,188.6,137.7,177.4,151.6,177.4z"/>
	<path style="fill:#313A43;" d="M48.6,114.6c0.1-6.9,5.8-12.4,12.7-12.4c6.9,0.1,12.4,5.8,12.4,12.7c-0.1,6.9-5.8,12.4-12.7,12.4
		C54.1,127.2,48.5,121.5,48.6,114.6z"/>
	<path style="fill:#1FBBB4;" d="M149.7,202.4c-2.8-0.8-5.4-1.8-7.3-4.1c-1.9-2.1-2.9-4.5-3.3-7.3c-0.1-1,0.4-1.2,1.3-1.2
		c3.7,0,7.5,0,11.2,0c0,4.1,0,8.2,0,12.4C150.9,202.4,150.3,202.4,149.7,202.4z"/>
</g>
</svg>
